<svg xmlns="http://www.w3.org/2000/svg" viewBox="0 0 59.836 87.977"><path d="M23.461,87.463c-2.124-.68-2.875-1.174-6.138-4.041A41.85,41.85,0,0,0,8.37,77.068C5.057,75.46,4,74.106,4,71.481a5.163,5.163,0,0,1,2.88-4.308c1.355-.794,1.411-.8,3.727-.446,2.114.324,3.146.269,10.225-.54C34.763,64.6,37.678,64.278,38.136,64.3c.247.013,2.2.37,4.342.794s5.686.971,7.877,1.216c5.609.628,7.37,1.492,8.944,4.39.428.788.542,1.666.537,4.144-.006,2.761-.1,3.345-.788,4.791a8.56,8.56,0,0,1-3.479,4.009c-1.018.526-2.135.711-11.145,1.841-3.376.423-8.139,1.167-10.584,1.652-5.061,1-7.967,1.095-10.38.323ZM9.648,64.2a12.639,12.639,0,0,1-7.4-7.115C.748,53.077,0,45.465,0,34.119c0-9.238.375-13.743,1.254-14.973,1.5-2.1,4.343-2.407,21.16-2.313,15.949.089,15.21-.242,17.537,7.853,3.867,13.453,5.857,28.151,4.384,32.385-1.13,3.248-3.587,4.829-8.119,5.223-1.661.145-6.727.729-11.256,1.3-8.867,1.116-13.107,1.283-15.312.6ZM6.012,14.13a7.005,7.005,0,0,1-.987-1.946c-.636-1.867-.218-4.865,1.02-7.318C7.595,1.8,9.231.894,14.328.3a23.052,23.052,0,0,1,8.178.12c5.062,1.065,8.433,4.74,8.439,9.2,0,2.121-.236,2.991-1.107,4.029-.526.627-.782.645-11.923.849-10.985.2-11.4.188-11.9-.366Z"/></svg>