<svg xmlns="http://www.w3.org/2000/svg" viewBox="0 0 67.388 87.199"><path d="M12.275,87.019c-.268-.108-.392-.956-.392-2.677V81.823l1.019.2c.561.112,8.1.287,16.758.388,15.05.177,25.61-.1,30.686-.811,2.771-.387,2.98-.192,2.98,2.777,0,1.958-.1,2.5-.5,2.655-.593.228-49.99.211-50.556-.017Zm6.336-7.3a38.607,38.607,0,0,1-5.885-.627c-2.3-.759-3.825-3.836-3.819-7.705.009-5.452,2.718-6.99,9.745-5.532a53.163,53.163,0,0,0,20.02.484c3.605-.529,4.294-.688,11.01-2.534,6.089-1.673,8.877-1.958,12.121-1.236,3.04.676,4.46,1.793,5.124,4.03,1.152,3.881.078,8.6-2.467,10.832-1.331,1.168-2.863,1.509-8.818,1.958-5.613.424-30.845.649-37.03.33ZM7.345,63.088C3.485,57.518-.414,33.954.035,18.91c.156-5.239.425-6.465,1.477-6.74,2.281-.6,8.553,4.995,14.172,12.633a88.381,88.381,0,0,1,8.906,16.6,21.29,21.29,0,0,1,.423,14.681,33.318,33.318,0,0,1-3.365,7.254l-.556.732-2.331-.721c-3.385-1.047-6.8-1-8.963.122L8.187,64.3Zm3.266-47.565c-2.744-2.857-6.7-5.438-8.349-5.455-.634-.006-.658-.088-.36-1.183A19.261,19.261,0,0,1,4.845,3.04c2.976-3.9,8.521-4.084,10.289-.346,2.04,4.312.926,12.348-1.875,13.518C11.846,16.8,11.839,16.8,10.611,15.523Z"/></svg>