<svg xmlns="http://www.w3.org/2000/svg" viewBox="0 0 83.983 87.816"><path d="M28.586,84.35C14.352,78.136,4.822,68.7,1.511,57.554.337,53.6,0,46.83,0,27.207,0,13.314.4,1.7.894,1.395s2.854.191,5.25,1.1c6.471,2.455,19.839,2.259,27.079-.4L38.944,0l5.278,2.067c6.734,2.637,20.2,2.888,26.711.5,2.438-.895,4.8-1.4,5.25-1.122S77,4.8,77,8.281c0,4.708-.385,6.482-1.5,6.91-1.212.465-1.5-.4-1.5-4.51,0-4.818-.118-5.048-2.25-4.371A81.667,81.667,0,0,1,60.209,7.547c-7.776.439-10.32.176-15.6-1.608-5.86-1.979-6.572-2.023-9.961-.607C27.29,8.406,14.049,8.884,6.1,6.362,4,5.7,4,5.739,4.01,30.512c.01,24.259.065,24.936,2.471,30.1,3.36,7.217,10.986,14.346,20.239,18.919,10,4.941,14.294,4.99,23.7.268,9.1-4.568,16.8-11.674,20.217-18.663,2.317-4.735,2.792-7.189,3.17-16.382.327-7.929.812-10.953,1.819-11.339,2.421-.929,1.878,19.987-.7,26.869-2.4,6.428-9.712,14.91-16.718,19.4-5.065,3.25-17.1,8.144-19.985,8.124-.95-.007-5.289-1.567-9.641-3.467Zm1.832-10.522C22.6,70.035,15.723,63.954,13.084,58.5,11.188,54.587,11,52.417,11,34.513V14.829h8.106A68.38,68.38,0,0,0,33.126,13.3c5.314-1.377,6.439-1.377,11.076,0a59.906,59.906,0,0,0,13.98,1.533H67v2.88c0,2.233-1.067,3.738-4.75,6.7-2.612,2.1-8.818,7.77-13.79,12.6l-9.04,8.78-4.413-6.061C27,28.727,22.28,26.458,17.455,31.284c-3.783,3.783-3.215,7.278,2.21,13.605A136.806,136.806,0,0,1,28.6,56.9c5.208,8.018,6.633,9.261,10.62,9.261,2.507,0,3.9-.955,7.192-4.917,6.307-7.6,14.785-16.413,17.982-18.693l2.892-2.063L66.8,47.91c-.547,8.437-2.246,12.362-7.718,17.834-4.121,4.121-17.04,11.1-20.47,11.06-1.164-.014-4.853-1.353-8.2-2.976Zm5.089-13.248c-9.338-13.243-11.916-16.76-14.585-19.9-2.634-3.1-2.933-3.964-1.977-5.75a4.136,4.136,0,0,1,3.576-2.1c1.914,0,4,2.023,9.519,9.25l7.069,9.25L49.8,40.742c9.671-9.573,22.03-19.652,27.946-22.79A3.985,3.985,0,0,1,82,17.829c3.919,2.1,2.32,4.665-7.4,11.876C63.282,38.1,52.84,47.805,45.829,56.447c-5.529,6.815-7.792,7.721-10.322,4.132Z"/></svg>