<svg xmlns="http://www.w3.org/2000/svg" viewBox="0 0 34.5 35.378"><path id="fur" class="cls-1" d="M5.679,35.256a2.03,2.03,0,0,1-.592-.617A18.1,18.1,0,0,0,1.17,30.524C.309,29.888.158,29.71.1,29.259c-.054-.405.1-.742.65-1.459a10.708,10.708,0,0,0,2.323-8.147A11.471,11.471,0,0,0,.7,14.322C-.212,13.1-.223,12.8.608,11.878a11.941,11.941,0,0,0,.82-1.013A11.164,11.164,0,0,0,2.992,6.911c.276-1.514.467-1.73,1.668-1.877a9.8,9.8,0,0,0,3.522-1A8.879,8.879,0,0,0,11.572.974C12.257-.08,11.784,0,17.248,0S22.24-.08,22.925.974a8.879,8.879,0,0,0,3.391,3.057,9.8,9.8,0,0,0,3.522,1c1.2.148,1.392.363,1.668,1.877a11.165,11.165,0,0,0,1.563,3.954,12.008,12.008,0,0,0,.824,1.017c.832.918.82,1.213-.1,2.444a11.469,11.469,0,0,0-2.366,5.326A10.708,10.708,0,0,0,33.749,27.8c.554.718.7,1.054.65,1.459-.061.451-.212.629-1.072,1.265a18.1,18.1,0,0,0-3.918,4.116c-.564.839-1.008.927-2.233.44a26.632,26.632,0,0,0-6.932-1.7,43.507,43.507,0,0,0-5.991,0,26.632,26.632,0,0,0-6.932,1.7c-.848.337-1.232.378-1.642.176Zm1.7-2.938a30.415,30.415,0,0,1,3.965-1.072,25.423,25.423,0,0,1,5.9-.523,25.423,25.423,0,0,1,5.9.523,30.415,30.415,0,0,1,3.965,1.072,5.02,5.02,0,0,0,.588.2,3.662,3.662,0,0,0,.546-.619,23.912,23.912,0,0,1,2.519-2.624L31.3,28.8l-.365-.559a13.676,13.676,0,0,1-2.07-5.528,13.075,13.075,0,0,1,2.222-9.007l.426-.635-.428-.6a12.569,12.569,0,0,1-1.9-4.12c-.113-.437-.214-.8-.226-.815s-.374-.1-.807-.191A12.212,12.212,0,0,1,23.785,5.5a11.934,11.934,0,0,1-2.5-2.4l-.394-.539H13.6L13.21,3.1A11.483,11.483,0,0,1,6.336,7.348c-.432.094-.8.18-.807.191s-.113.378-.226.815a12.57,12.57,0,0,1-1.9,4.12l-.428.6.426.635a13.075,13.075,0,0,1,2.222,9.007,13.677,13.677,0,0,1-2.07,5.528l-.365.559.538.471A23.912,23.912,0,0,1,6.249,31.9a3.662,3.662,0,0,0,.546.619,5.02,5.02,0,0,0,.588-.2Zm1.331-3.88a7.187,7.187,0,0,1-1.578-.163.3.3,0,0,1-.012-.453,13.044,13.044,0,0,1,1.658-.336,67.551,67.551,0,0,0,7.469-1.616,4.267,4.267,0,0,1,1-.168,4.267,4.267,0,0,1,1,.168,66.516,66.516,0,0,0,7.36,1.6c1.825.309,2.023.386,1.818.712-.134.213-.914.265-4.105.277a34.35,34.35,0,0,1-4.274-.142,11.849,11.849,0,0,0-3.519-.011,59.163,59.163,0,0,1-6.814.133ZM10.828,24.6c-1.114-.067-1.328-.13-1.328-.389,0-.222.145-.288,1.038-.475a45.056,45.056,0,0,0,4.833-1.3c1.864-.626,1.89-.626,3.755,0a45.056,45.056,0,0,0,4.833,1.3,5.1,5.1,0,0,1,.939.255.3.3,0,0,1-.007.449,9.723,9.723,0,0,1-1.727.18,27.781,27.781,0,0,1-5.176-.2,4.378,4.378,0,0,0-1.5,0,27.546,27.546,0,0,1-5.662.18ZM9.8,20.762c-1.352-.07-1.6-.137-1.562-.415.031-.22.206-.271,2.222-.656,1.768-.337,4.161-.924,5.5-1.348a5.867,5.867,0,0,1,1.292-.287,5.867,5.867,0,0,1,1.292.287c1.338.424,3.731,1.011,5.5,1.348,2.015.385,2.19.436,2.222.656a.245.245,0,0,1-.135.26,15.326,15.326,0,0,1-2.012.176,36.337,36.337,0,0,1-6.006-.208,5.057,5.057,0,0,0-1.718,0,36.42,36.42,0,0,1-6.591.19ZM8.713,16.934a7.188,7.188,0,0,1-1.578-.163.3.3,0,0,1-.012-.453,13.044,13.044,0,0,1,1.658-.336,67.552,67.552,0,0,0,7.469-1.616,4.267,4.267,0,0,1,1-.168,4.267,4.267,0,0,1,1,.168,66.516,66.516,0,0,0,7.36,1.6c1.825.309,2.023.386,1.818.712-.134.213-.914.265-4.105.277a34.35,34.35,0,0,1-4.274-.142,11.849,11.849,0,0,0-3.519-.011,59.163,59.163,0,0,1-6.814.133Zm-1.028-3.84a11.769,11.769,0,0,1-1.777-.15.278.278,0,0,1-.062-.461A5.425,5.425,0,0,1,6.9,12.27c3.074-.427,6.451-1.056,8.845-1.646a14.788,14.788,0,0,1,1.5-.317,14.788,14.788,0,0,1,1.5.317c2.394.59,5.772,1.219,8.845,1.646a5.425,5.425,0,0,1,1.058.213.278.278,0,0,1-.056.457,22.753,22.753,0,0,1-2.5.172,60.952,60.952,0,0,1-7.752-.209,8.046,8.046,0,0,0-2.2,0,60.565,60.565,0,0,1-8.465.192Zm3.143-3.837C9.714,9.191,9.5,9.128,9.5,8.868c0-.222.145-.288,1.038-.475a45.056,45.056,0,0,0,4.833-1.3,7,7,0,0,1,1.877-.483,7,7,0,0,1,1.877.483,45.055,45.055,0,0,0,4.833,1.3,5.1,5.1,0,0,1,.939.255.3.3,0,0,1-.007.449,9.723,9.723,0,0,1-1.727.18,27.781,27.781,0,0,1-5.176-.2,4.378,4.378,0,0,0-1.5,0,27.546,27.546,0,0,1-5.662.18Zm3.235-3.828c-.628-.078-.808-.168-.808-.4,0-.177.016-.188.959-.613.417-.188,1.04-.506,1.384-.706a5.378,5.378,0,0,1,1.138-.49,1.562,1.562,0,0,1,1.026,0,5.377,5.377,0,0,1,1.138.49c.344.2.985.524,1.424.721a4.008,4.008,0,0,1,.878.48c.118.18-.046.387-.367.462a10.946,10.946,0,0,1-2.929-.043,2.41,2.41,0,0,0-1.278-.015,9.025,9.025,0,0,1-2.566.113Z" transform="translate(0 0)"/></svg>
