<svg xmlns="http://www.w3.org/2000/svg" viewBox="0 0 89.823 83.705"><path d="M7.759,80.6C3.4,76.236,4.254,71.953,10.844,65.21l4.95-5.065L13.422,56.74a21.736,21.736,0,0,1-3.016-6.5c-.366-1.758-2.751-5.257-5.525-8.105L0,37.124l1.211-3.989c1.463-4.82,11.034-15.047,15-16.026,2.231-.551,3.7.046,7.8,3.17,4.774,3.641,5.383,3.832,11.251,3.539a49.827,49.827,0,0,1,11.087.793c4.228.955,5.141.87,6.8-.634,1.511-1.368,1.786-2.53,1.291-5.459A10.927,10.927,0,0,1,55,12.47C57.09,8.4,64.233,1.71,67.73.556c3.307-1.092,12.23-.458,12.23.869,0,.362-2.351,3.038-5.225,5.948l-5.225,5.29,3.716,3.716,3.716,3.716,5.484-5.416c3.016-2.979,5.785-5.115,6.153-4.747s.879,2.855,1.136,5.526c.569,5.921-1.048,9.412-6.744,14.557C77.941,34.56,75.12,35.708,70.733,35c-5.439-.883-6.424,1.267-3.946,8.606l2.029,6.01-2.564,2.017a9.291,9.291,0,0,1-3.929,2.017c-.751,0-1.365.407-1.365.905,0,1.559-7.045,9.522-9.836,11.118-1.465.838-5.26,3.2-8.433,5.25C36.975,74.611,31.747,75.73,30.4,73.55c-.419-.678-2.443.612-5.309,3.384C17.074,84.689,12.761,85.6,7.759,80.6Zm28.2-11.451c1.02-1.229.763-2.127-1.428-5-2.734-3.584-5.943-4.578-6.882-2.132-.526,1.37,4.742,8.629,6.262,8.629a4.045,4.045,0,0,0,2.048-1.5Zm7.78-4.59c.166-.861-1.458-3.547-3.607-5.97-3.417-3.851-4.114-4.235-5.54-3.051-2.227,1.848-2.139,2.155,1.99,6.979,3.615,4.223,6.575,5.068,7.158,2.042Zm6.842-3.365c.737-1.921-6.512-10.547-8.864-10.547-3.336,0-3.009,2.818.866,7.453,3.823,4.574,6.964,5.789,8,3.094ZM26.107,50.146c5.285-4.985,7.58-6.5,9.851-6.5a22.975,22.975,0,0,0,6.888-1.571c3.812-1.525,4.04-1.5,7.77.991,2.114,1.409,5.027,3.514,6.473,4.677,1.718,1.382,3.337,1.89,4.67,1.467l2.04-.648-1.967-5.708c-1.7-4.932-2.742-6.252-7.67-9.708-5.687-3.989-5.732-4-16-4.2-10.087-.194-10.392-.269-15.134-3.75-2.662-1.954-5.239-3.552-5.728-3.552-1.947,0-8.521,6.428-10.459,10.225L4.788,35.9l4.48,4.622c2.464,2.542,4.8,5.747,5.2,7.122.982,3.421,3.609,9,4.237,9,.283,0,3.615-2.925,7.4-6.5Zm29.6,3.787c.22-.667-1.384-3.125-3.564-5.462C48.7,44.79,47.96,44.4,46.567,45.556c-2.152,1.786-2.091,2.047,1.51,6.416C51.179,55.735,54.8,56.667,55.7,53.933Z"/></svg>