<svg xmlns="http://www.w3.org/2000/svg" viewBox="0 0 110.519 87.508"><path d="M59.321,87.154a22.434,22.434,0,0,1-8.379-3.328,26.289,26.289,0,0,1-6.672-6.8l-1-1.691-17.841-.066L7.584,75.2,6,74.452A10.739,10.739,0,0,1,.974,69.523,7.338,7.338,0,0,1,.02,65.875C-.158,62.45.908,30.606,1.257,28.9c.854-4.181,2.385-5.832,8.769-9.451,5.537-3.139,7.56-4.45,9.245-5.99a7.911,7.911,0,0,0,2.721-5.126,10.33,10.33,0,0,1,1.252-4.64A9.73,9.73,0,0,1,26.872.511C27.966,0,27.967,0,45.771,0h17.8L64.9.652a8.59,8.59,0,0,1,3.919,3.917c.535,1.139.615,1.648.689,4.379l.084,3.091,6.478.072c6.038.067,6.552.106,7.561.573a9.784,9.784,0,0,1,3.639,3.188,10.33,10.33,0,0,1,1.252,4.64,7.911,7.911,0,0,0,2.721,5.126c1.685,1.54,3.708,2.851,9.245,5.99,6.38,3.618,7.911,5.258,8.753,9.376.362,1.77,1.442,33.817,1.252,37.145a10.224,10.224,0,0,1-7.528,9.026c-1.713.456-41.123.438-43.647-.02Zm42.827-7.1c1.657-1.031,1.623-.516,1.133-16.94-.629-21.1-.593-20.408-1.116-21.578a4.793,4.793,0,0,0-.9-1.384c-.244-.205-2.447-1.511-4.9-2.9-5.629-3.2-8.219-4.965-10.309-7.033A13.923,13.923,0,0,1,81.6,21.252c-.242-2.47-.03-2.393-6.6-2.393H69.549V32.681H76.1c8.345,0,8.9.11,12.236,2.427.814.566,3.325,2.057,5.58,3.313,4.583,2.555,5.178,3.016,6.022,4.67.824,1.616.949,3.362,1.36,19.091l.352,13.453-.5,1.036c-1,2.06.354,1.925-19.365,1.926-19.231,0-19.43-.012-22.656-1.479a20.165,20.165,0,0,1-3.138-1.875l-1.5-1.129-1.661.446-1.661.446,1.284,1.233a15.726,15.726,0,0,0,8.972,4.213c.925.109,10.274.185,20.776.168l19.093-.031Zm-3.076-4.28c.186-.347.154-4.2-.115-14.115-.428-15.756-.457-16.2-1.137-17.546-.575-1.139-.855-1.334-6.367-4.443-2.062-1.163-4.284-2.516-4.938-3.007-2.086-1.567-2.554-1.643-10.165-1.643H69.582L69.5,46.093,69.41,57.163l-.635,2.059A22.238,22.238,0,0,1,58,72.522l-1.121.613.887.612a18.008,18.008,0,0,0,4.869,2.183c.865.211,5.75.291,18.675.306,17.387.02,17.505.017,17.759-.458ZM51.151,67.964a15.663,15.663,0,0,0,9.951-8c1.479-3,1.42-1.817,1.42-28.511V7.134l-.6-.228c-.369-.14-6.642-.228-16.23-.228-13.341,0-15.7.05-16.118.343-.387.271-.525.7-.656,2.05a13.924,13.924,0,0,1-4.462,8.969c-2.09,2.068-4.68,3.835-10.309,7.033-2.448,1.391-4.651,2.7-4.9,2.9a4.931,4.931,0,0,0-.91,1.415c-.434.971-.5,2.234-1,18.513-.292,9.609-.48,17.742-.417,18.073a3.461,3.461,0,0,0,.622,1.233c1.075,1.34.592,1.313,22.294,1.24,18.3-.062,20.027-.1,21.31-.484Zm-40.6-2.023a3.537,3.537,0,0,1-1.23-1.5c-.444-1-.446-1.286-.1-14.46.411-15.752.533-17.452,1.369-19.1.8-1.581,1.321-1.98,6.057-4.651,2.23-1.257,4.72-2.747,5.535-3.309a11.079,11.079,0,0,1,4.446-2.159c.844-.179,6.005-.263,16.118-.263,16.3,0,15.575-.061,16.81,1.408a5.128,5.128,0,0,1,.858,1.651c.169.627.227,5.754.179,15.744-.07,14.575-.08,14.839-.589,16.338a16.077,16.077,0,0,1-9.023,9.53c-2.991,1.215-3.547,1.246-22.276,1.245-17.027,0-17.39-.01-18.151-.475Zm38.819-2.616c4.382-1.6,7.845-5.343,8.684-9.385.174-.84.236-5.874.193-15.675-.061-13.886-.081-14.457-.516-14.937l-.452-.5-15.361.065-15.361.065-1.049.559a15.032,15.032,0,0,0-1.874,1.213c-.454.359-2.931,1.851-5.506,3.314-5.12,2.91-5.548,3.3-5.944,5.412-.37,1.97-1.043,29.574-.736,30.149.257.48.306.481,18.226.416l17.968-.065Z"/></svg>