<svg xmlns="http://www.w3.org/2000/svg" viewBox="0 0 89.53 88.711"><path d="M28,88.205c-2.191-.811-3.942-4.954-2.844-6.731.323-.523-4.624-4.223-10.994-8.223-7.833-4.919-11.9-8.109-12.567-9.857C-1.637,54.926.3,44.311,5.08,44.311c5.406,0,8.212-1.257,10.426-4.67a16.885,16.885,0,0,0,2.25-4.322c0-.469-1.913-2.492-4.25-4.5-4.039-3.463-4.151-3.7-2.25-4.828,7.053-4.176,11.976-4.529,16.865-1.211,2.965,2.012,4.122,2.292,6.2,1.5,1.408-.535,6.114-.973,10.457-.973,11.466,0,17.807,2.616,25.636,10.574,3.39,3.446,6.38,6.05,6.644,5.785s-.6-1.558-1.913-2.875c-2.8-2.8-2.964-4.226-.837-7.262,1.818-2.6,6.552-3,8.443-.723,1.739,2.1,2.806,1.87,3.18-.672.464-3.151,2.637-3.4,3.393-.392.749,2.985-.415,5.024-6.714,11.755l-4.39,4.692,0,8.308c.006,9.31-1.712,13.745-8.03,20.739-2.222,2.46-3.246,4.421-2.849,5.457,2.494,6.5-6.918,11.388-9.79,5.085-.925-2.031-1.375-2.154-4.613-1.26a41.047,41.047,0,0,1-10.289.612c-5.406-.305-6.9-.062-7.725,1.262-1.309,2.1-4.152,2.838-6.936,1.808ZM26.68,51.495c1.958-4.728-1.531-11.06-4.438-8.052-1.677,1.735-2.091,4.608-1.169,8.118.965,3.675,4.073,3.638,5.608-.066ZM80.756,35.37a2.045,2.045,0,0,0-3.016-1.549A1.151,1.151,0,0,0,77.3,35.38c.751,1.215,3.457,1.207,3.457-.01Zm-25-2.1c0-2.032-2.763-2.923-9.128-2.942-4.453-.013-7.7,1.833-6.54,3.715.277.449,3.916.846,8.086.883,6.533.057,7.582-.172,7.582-1.656Zm.5-12.669c-3.029-.729-7.326-5.218-8.021-8.38C46.576,4.659,55-2.286,62.181.715c4.278,1.787,6.575,5.14,6.575,9.6s-2.3,7.809-6.6,9.606A19.109,19.109,0,0,1,58.538,21.2c-.155-.064-1.182-.333-2.282-.6Z"/></svg>