<svg xmlns="http://www.w3.org/2000/svg" viewBox="0 0 89.767 77.51"><path d="M1.858,75.409C-.087,73.464-.147,72.32.108,42.159L.372,10.923l5.5-2.715a116.821,116.821,0,0,1,14.5-5.42C28.276.412,31.137.073,43.872,0c16.6-.091,27.518,2.071,39,7.722l6.5,3.2.275,31.5c.271,31.117.249,31.521-1.861,33.25a10.735,10.735,0,0,1-6,1.75H77.913l-.271-20.25-.271-20.25h-65L12.1,57.173l-.271,20.25H7.851q-3.983,0-5.994-2.014ZM27.372,23.923v-3H19.886c-6.427,0-7.536.256-7.835,1.808-.793,4.117.424,4.795,8.056,4.486l7.264-.294Zm25,0v-3H44.886c-6.427,0-7.536.256-7.835,1.808-.793,4.117.424,4.795,8.056,4.486l7.264-.294Zm25,0v-3H69.886c-6.427,0-7.536.256-7.835,1.808-.793,4.117.424,4.795,8.056,4.486l7.264-.294Zm-58.5,45.544V61.423h3c2.667,0,3,.333,3,3q0,3,1.5,3t1.5-3c0-2.676.329-3,3.042-3h3.042l-.292,7.75-.292,7.75-7.25.294-7.25.294Zm18.434,6.645c-.3-.77-.4-4.277-.236-7.794.3-6.372.312-6.395,3.3-6.395,2.529,0,3.05.431,3.316,2.75.448,3.89,3.184,3.618,3.184-.316,0-2.755.279-3.034,2.75-2.75,2.727.314,2.75.378,2.75,7.816v7.5l-7.264.294C39.6,77.44,37.713,77.173,37.306,76.112Zm19,0c-.3-.77-.4-4.277-.236-7.794.29-6.147.408-6.407,3.051-6.711,2.471-.284,2.75-.005,2.75,2.75,0,2.059.493,3.066,1.5,3.066s1.5-1.007,1.5-3.063c0-2.854.222-3.042,3.25-2.75l3.25.313v15l-7.264.294c-5.508.223-7.394-.044-7.8-1.105ZM18.872,50.357V42.29l2.75.316c2.291.264,2.8.858,3.063,3.566.448,4.651,3.187,4.379,3.187-.316,0-3.3.2-3.543,2.75-3.25,2.707.311,2.755.438,3.042,8.066l.292,7.75H18.872Zm18.434,6.755c-.3-.77-.4-4.277-.236-7.794.3-6.372.312-6.395,3.3-6.395,2.665,0,3.035.369,3.318,3.311.4,4.206,2.567,3.7,3-.7.281-2.855.631-3.2,3-2.923,2.644.305,2.682.418,2.682,7.81v7.5l-7.264.294c-5.508.223-7.394-.044-7.8-1.105Z"/></svg>