<svg xmlns="http://www.w3.org/2000/svg" viewBox="0 0 87.198 87.199"><path d="M43.6,0A43.6,43.6,0,1,0,87.2,43.6,43.6,43.6,0,0,0,43.6,0Zm0,79.683A36.083,36.083,0,1,1,79.683,43.6,36.083,36.083,0,0,1,43.6,79.683Z"/><g transform="translate(32.581 54.602)"><path d="M62.552,104.76l.026.292-.068-.281Z" transform="translate(-62.51 -104.76)"/><path d="M75.464,123.708a34.4,34.4,0,0,0,8.907-1.178L80.1,139.548H71.237L67,122.619A33.274,33.274,0,0,0,75.464,123.708Z" transform="translate(-64.66 -113.268)"/><path d="M104.727,104.77l-.057.214.021-.224Z" transform="translate(-82.696 -104.76)"/><path d="M68.921,146.05s.261,3.5-3.033,2.517.756,2.606,2.382,2.689,4.138.787,4.17,0a25.331,25.331,0,0,0-1.131-4.133Z" transform="translate(-63.526 -124.529)"/><path d="M91.187,146.05s-.255,3.5,3.033,2.517-.756,2.606-2.382,2.689-4.133.787-4.17,0a24.811,24.811,0,0,1,1.131-4.133Z" transform="translate(-74.556 -124.529)"/></g><g transform="translate(4.999 34.27)"><path d="M27,71.207a9.043,9.043,0,0,1-.208-4.295l-9.642,1.965a.408.408,0,0,0-.073,0c-3.575.724-3.768-3.127-3.768-3.127H11.993a26.3,26.3,0,0,0-2.085,3.57,1.813,1.813,0,0,0,.975,2.127L10.7,75.272c-.407,0-.678.094-.761.344a13.254,13.254,0,0,0-.25,4.634c.208,1.042.641,3.331.855,3.331s2.533-.229,2.533-.229.261-2.5,3.648-2.5h0a5.311,5.311,0,0,1,1.616.224l12.874,4.1Zm-7.036,3.8-3-.365v-.881l3-.365Zm1.611,3H20.7l-.365-3h1.611ZM20.333,73.4l.365-3h.881l.365,3ZM25.3,74.642l-3,.365V73.4l3,.365Z" transform="translate(-9.591 -65.75)"/><path d="M137.456,75.706c-.068-.25-.349-.344-.751-.344l-.182-3.826a1.845,1.845,0,0,0,.98-2.127,27.258,27.258,0,0,0-2.085-3.57H134.1s-.193,3.831-3.763,3.127h-.078l-9.658-2a8.782,8.782,0,0,1-.2,4.295L116.18,85.281l12.884-4.1a5.285,5.285,0,0,1,1.616-.224h0c3.383,0,3.648,2.5,3.648,2.5s2.325.229,2.544.229.636-2.309.85-3.331A13.031,13.031,0,0,0,137.456,75.706Zm-12.509,3.341H122.7v-2.3h2.252Zm0-4.785H122.7V71.943h2.252Zm3.977,4.806h-2.252V76.744h2.252Zm0-4.806h-2.252V71.943h2.252Z" transform="translate(-60.625 -65.793)"/></g><g transform="translate(23.877 27.319)"><path d="M82.006,75.626H69.663a2.7,2.7,0,0,0-2.147.881.839.839,0,0,0-.151.782l2.319,7.1a2.391,2.391,0,0,0,2.3,1.162h7.683a2.413,2.413,0,0,0,2.293-1.162l2.319-7.1a.823.823,0,0,0-.146-.782,2.705,2.705,0,0,0-2.127-.881Z" transform="translate(-56.112 -63.526)"/><path d="M83.311,57.479h0c-17.778-11.128-35.01-.521-35.562,0h0a6.864,6.864,0,0,0-1.631,6.812l5.525,18.352a6.182,6.182,0,0,0,2.882,3.68h0a5.384,5.384,0,0,0,1.345.521,31.643,31.643,0,0,0,18.837.083,5.171,5.171,0,0,0,1.835-.6h0a6.171,6.171,0,0,0,2.888-3.68l5.514-18.357A6.854,6.854,0,0,0,83.311,57.479ZM75.654,66.72l-2.319,7.1a4.021,4.021,0,0,1-3.972,2.356H61.681a4.018,4.018,0,0,1-3.951-2.366L55.411,66.72a2.559,2.559,0,0,1,.391-2.345,4.409,4.409,0,0,1,3.56-1.6H71.7a4.4,4.4,0,0,1,3.555,1.6,2.559,2.559,0,0,1,.4,2.345Z" transform="translate(-45.81 -52.415)"/></g></svg>